<svg width="17" height="16" viewBox="0 0 17 16" fill="none" xmlns="http://www.w3.org/2000/svg">
<g clip-path="url(#clip0_77_2)">
<path d="M16.002 1.94C16.0954 2.03372 16.1479 2.16066 16.1479 2.293C16.1479 2.42533 16.0954 2.55227 16.002 2.646L14.959 3.69L12.959 1.69L14.002 0.645997C14.0958 0.552261 14.2229 0.499603 14.3555 0.499603C14.4881 0.499603 14.6152 0.552261 14.709 0.645997L16.002 1.939V1.94ZM14.252 4.396L12.252 2.396L5.439 9.21C5.38396 9.26502 5.34253 9.33214 5.318 9.406L4.513 11.82C4.4984 11.864 4.49633 11.9112 4.50701 11.9563C4.5177 12.0014 4.54072 12.0427 4.57351 12.0755C4.60629 12.1083 4.64755 12.1313 4.69267 12.142C4.73779 12.1527 4.78499 12.1506 4.829 12.136L7.243 11.331C7.31676 11.3068 7.38387 11.2657 7.439 11.211L14.252 4.396Z" fill="white"/>
<path fill-rule="evenodd" clip-rule="evenodd" d="M1.5 13.5C1.5 13.8978 1.65804 14.2794 1.93934 14.5607C2.22064 14.842 2.60218 15 3 15H14C14.3978 15 14.7794 14.842 15.0607 14.5607C15.342 14.2794 15.5 13.8978 15.5 13.5V7.5C15.5 7.36739 15.4473 7.24021 15.3536 7.14645C15.2598 7.05268 15.1326 7 15 7C14.8674 7 14.7402 7.05268 14.6464 7.14645C14.5527 7.24021 14.5 7.36739 14.5 7.5V13.5C14.5 13.6326 14.4473 13.7598 14.3536 13.8536C14.2598 13.9473 14.1326 14 14 14H3C2.86739 14 2.74021 13.9473 2.64645 13.8536C2.55268 13.7598 2.5 13.6326 2.5 13.5V2.5C2.5 2.36739 2.55268 2.24021 2.64645 2.14645C2.74021 2.05268 2.86739 2 3 2H9.5C9.63261 2 9.75979 1.94732 9.85355 1.85355C9.94732 1.75979 10 1.63261 10 1.5C10 1.36739 9.94732 1.24021 9.85355 1.14645C9.75979 1.05268 9.63261 1 9.5 1H3C2.60218 1 2.22064 1.15804 1.93934 1.43934C1.65804 1.72064 1.5 2.10218 1.5 2.5V13.5Z" fill="white"/>
</g>
<defs>
<clipPath id="clip0_77_2">
<rect width="16" height="16" fill="white" transform="translate(0.5)"/>
</clipPath>
</defs>
</svg>
