<svg width="16" height="16" viewBox="0 0 16 16" fill="none" xmlns="http://www.w3.org/2000/svg">
<path d="M11 1.5V2.5H14.5C14.6326 2.5 14.7598 2.55268 14.8536 2.64645C14.9473 2.74021 15 2.86739 15 3C15 3.13261 14.9473 3.25979 14.8536 3.35355C14.7598 3.44732 14.6326 3.5 14.5 3.5H13.962L13.109 14.16C13.0688 14.6612 12.8412 15.1289 12.4717 15.4698C12.1022 15.8108 11.6178 16.0001 11.115 16H4.885C4.38219 16.0001 3.8978 15.8108 3.52827 15.4698C3.15875 15.1289 2.93122 14.6612 2.891 14.16L2.038 3.5H1.5C1.36739 3.5 1.24021 3.44732 1.14645 3.35355C1.05268 3.25979 1 3.13261 1 3C1 2.86739 1.05268 2.74021 1.14645 2.64645C1.24021 2.55268 1.36739 2.5 1.5 2.5H5V1.5C5 1.10218 5.15804 0.720644 5.43934 0.43934C5.72064 0.158035 6.10218 0 6.5 0L9.5 0C9.89782 0 10.2794 0.158035 10.5607 0.43934C10.842 0.720644 11 1.10218 11 1.5ZM6 1.5V2.5H10V1.5C10 1.36739 9.94732 1.24021 9.85355 1.14645C9.75979 1.05268 9.63261 1 9.5 1H6.5C6.36739 1 6.24021 1.05268 6.14645 1.14645C6.05268 1.24021 6 1.36739 6 1.5ZM4.5 5.029L5 13.529C5.00267 13.5954 5.01857 13.6607 5.04676 13.7209C5.07495 13.7811 5.11488 13.8351 5.16419 13.8797C5.21351 13.9244 5.27123 13.9587 5.33397 13.9807C5.39672 14.0027 5.46322 14.012 5.5296 14.008C5.59598 14.004 5.6609 13.9868 5.72055 13.9575C5.7802 13.9281 5.8334 13.8871 5.87701 13.8369C5.92063 13.7867 5.9538 13.7283 5.97457 13.6651C5.99535 13.602 6.00331 13.5353 5.998 13.469L5.498 4.969C5.49533 4.90256 5.47943 4.83731 5.45124 4.77708C5.42305 4.71686 5.38313 4.66286 5.33381 4.61825C5.28449 4.57365 5.22677 4.53932 5.16403 4.5173C5.10128 4.49527 5.03478 4.48598 4.9684 4.48997C4.90202 4.49396 4.8371 4.51115 4.77745 4.54054C4.7178 4.56992 4.6646 4.61091 4.62099 4.66111C4.57737 4.7113 4.5442 4.76969 4.52343 4.83286C4.50265 4.89603 4.49469 4.96271 4.5 5.029ZM11.03 4.501C10.8977 4.49335 10.7677 4.53856 10.6687 4.6267C10.5697 4.71483 10.5097 4.83867 10.502 4.971L10.002 13.471C9.99771 13.6014 10.0445 13.7282 10.1325 13.8246C10.2204 13.9209 10.3425 13.979 10.4727 13.9866C10.6029 13.9942 10.7309 13.9506 10.8295 13.8651C10.928 13.7796 10.9892 13.659 11 13.529L11.5 5.029C11.5076 4.89667 11.4624 4.76671 11.3743 4.6677C11.2862 4.56869 11.1623 4.50873 11.03 4.501ZM8 4.5C7.86739 4.5 7.74021 4.55268 7.64645 4.64645C7.55268 4.74021 7.5 4.86739 7.5 5V13.5C7.5 13.6326 7.55268 13.7598 7.64645 13.8536C7.74021 13.9473 7.86739 14 8 14C8.13261 14 8.25979 13.9473 8.35355 13.8536C8.44732 13.7598 8.5 13.6326 8.5 13.5V5C8.5 4.86739 8.44732 4.74021 8.35355 4.64645C8.25979 4.55268 8.13261 4.5 8 4.5Z" fill="white"/>
</svg>
